<svg width="44" height="44" viewBox="0 0 44 44" fill="none" xmlns="http://www.w3.org/2000/svg">
<circle cx="22" cy="22" r="22" fill="#E5740B"/>
<path fill-rule="evenodd" clip-rule="evenodd" d="M23.4776 10.6396C22.6851 9.78679 21.3149 9.78679 20.5224 10.6396C19.9598 11.245 19.0718 11.4434 18.2967 11.137C17.2047 10.7052 15.9702 11.2873 15.6341 12.3923C15.3956 13.1767 14.6834 13.7327 13.8493 13.7859C12.6741 13.8608 11.8198 14.9096 12.0067 16.048C12.1394 16.856 11.7442 17.6595 11.0162 18.0617C9.99057 18.6284 9.68566 19.9362 10.3586 20.8825C10.8362 21.5541 10.8362 22.4459 10.3586 23.1175C9.68566 24.0638 9.99057 25.3716 11.0162 25.9383C11.7442 26.3405 12.1394 27.144 12.0067 27.952C11.8198 29.0904 12.6741 30.1392 13.8493 30.2141C14.6834 30.2673 15.3956 30.8233 15.6341 31.6077C15.9702 32.7127 17.2047 33.2948 18.2967 32.863C19.0718 32.5566 19.9598 32.755 20.5224 33.3604C21.3149 34.2132 22.6851 34.2132 23.4776 33.3604C24.0402 32.755 24.9282 32.5566 25.7033 32.863C26.7953 33.2948 28.0298 32.7127 28.3659 31.6077C28.6044 30.8233 29.3166 30.2673 30.1507 30.2141C31.3259 30.1392 32.1802 29.0904 31.9933 27.952C31.8606 27.144 32.2558 26.3405 32.9838 25.9383C34.0094 25.3716 34.3143 24.0638 33.6414 23.1175C33.1638 22.4459 33.1638 21.5541 33.6414 20.8825C34.3143 19.9362 34.0094 18.6284 32.9838 18.0617C32.2558 17.6595 31.8606 16.856 31.9933 16.048C32.1802 14.9096 31.3259 13.8608 30.1507 13.7859C29.3166 13.7327 28.6044 13.1767 28.3659 12.3923C28.0298 11.2873 26.7953 10.7052 25.7033 11.137C24.9282 11.4434 24.0402 11.245 23.4776 10.6396ZM18.6646 28.6708C18.2941 28.4856 18.1439 28.0351 18.3292 27.6646L24.3292 15.6646C24.5144 15.2941 24.9649 15.1439 25.3354 15.3292C25.7059 15.5144 25.8561 15.9649 25.6708 16.3354L19.6708 28.3354C19.4856 28.7059 19.0351 28.8561 18.6646 28.6708ZM18 16.75C17.3096 16.75 16.75 17.3097 16.75 18C16.75 18.6904 17.3096 19.25 18 19.25C18.6904 19.25 19.25 18.6904 19.25 18C19.25 17.3097 18.6904 16.75 18 16.75ZM15.25 18C15.25 16.4812 16.4812 15.25 18 15.25C19.5188 15.25 20.75 16.4812 20.75 18C20.75 19.5188 19.5188 20.75 18 20.75C16.4812 20.75 15.25 19.5188 15.25 18ZM24.75 26C24.75 25.3097 25.3096 24.75 26 24.75C26.6904 24.75 27.25 25.3097 27.25 26C27.25 26.6904 26.6904 27.25 26 27.25C25.3096 27.25 24.75 26.6904 24.75 26ZM26 23.25C24.4812 23.25 23.25 24.4812 23.25 26C23.25 27.5188 24.4812 28.75 26 28.75C27.5188 28.75 28.75 27.5188 28.75 26C28.75 24.4812 27.5188 23.25 26 23.25Z" fill="white"/>
</svg>
