<svg width="44" height="44" viewBox="0 0 44 44" fill="none" xmlns="http://www.w3.org/2000/svg">
<circle cx="22" cy="22" r="22" fill="#7D3DAF"/>
<path fill-rule="evenodd" clip-rule="evenodd" d="M32.5013 17.2637L32.5079 17.2891C33.164 20.1881 33.164 23.128 32.5079 26.0271L32.5013 26.0525C31.9706 28.1283 29.5778 30.3559 27.3804 30.8193L27.3556 30.8242C25.5789 31.1522 23.7891 31.3158 22 31.3158C21.4734 31.3158 20.9468 31.3 20.4205 31.2715L17.9938 33.7119C17.3931 34.3171 16.3367 33.9052 16.3367 33.0665V30.7493C14.2213 30.1648 12.0068 28.0397 11.4979 26.0524L11.4921 26.027C10.836 23.128 10.836 20.1881 11.4921 17.2891L11.4979 17.2637C12.0294 15.1878 14.4222 12.9603 16.6188 12.4969L16.6444 12.492C20.1978 11.836 23.8015 11.836 27.3556 12.492L27.3804 12.4969C29.5778 12.9603 31.9706 15.1878 32.5013 17.2637ZM27.3228 20.5285C26.8542 17.9822 24.6677 16.2729 22.0055 16.2007C21.9906 16.2007 21.9756 16.2004 21.9607 16.2002C21.9241 16.1996 21.8875 16.1991 21.851 16.201C21.6623 16.2108 21.495 16.3635 21.5303 16.5553C21.5701 16.7714 21.7947 16.7933 21.9797 16.8114L22.0118 16.8145C22.1054 16.824 22.1992 16.8319 22.2931 16.8397C22.5011 16.8571 22.7091 16.8745 22.9137 16.9098C24.8876 17.2504 26.469 18.8378 26.7446 20.7564C26.7862 21.0463 26.8067 21.3392 26.8272 21.6319L26.8273 21.6324C26.8325 21.7065 26.8377 21.7805 26.8432 21.8545C26.857 22.0397 26.9531 22.2124 27.1665 22.2099C27.3731 22.2075 27.4815 22.0316 27.4665 21.8463C27.4622 21.7921 27.4579 21.7378 27.4536 21.6835C27.4233 21.2968 27.3928 20.9089 27.3228 20.5285ZM24.9289 27.3203C24.9981 27.3388 25.0686 27.3575 25.1401 27.3786C25.2011 27.3604 25.2632 27.3451 25.325 27.3299C25.4589 27.2969 25.5915 27.2642 25.7086 27.2035C26.3146 26.8885 26.7346 26.3952 27.0233 25.8021C27.181 25.4783 27.0846 25.1652 26.8046 24.9266C26.5333 24.6955 26.242 24.495 25.9483 24.2927L25.8832 24.2478C25.5615 24.0261 25.2379 23.8066 24.904 23.6022C24.5703 23.3979 24.1743 23.4011 23.8645 23.6462C23.7526 23.7348 23.662 23.8519 23.5716 23.9686C23.406 24.1825 23.2414 24.3952 22.9486 24.4283C22.7026 24.456 22.4853 24.3673 22.2713 24.2799C22.2503 24.2714 22.2295 24.2629 22.2086 24.2545C20.7433 23.6646 19.8504 22.5694 19.3207 21.1609C19.2519 20.978 19.257 20.7795 19.3639 20.6112C19.4223 20.5192 19.5026 20.4506 19.5879 20.3826C19.601 20.3722 19.6141 20.3617 19.6272 20.3511L19.6451 20.3367C19.7229 20.2739 19.8008 20.2111 19.8847 20.1559C20.3143 19.8736 20.3793 19.3664 20.1423 18.9515C19.7568 18.277 19.2808 17.6653 18.7626 17.0834C18.5229 16.8143 18.1991 16.7263 17.8709 16.8789C17.4504 17.0743 17.0621 17.3395 16.7603 17.6861C16.4388 18.0553 16.1334 18.5616 16.3407 19.0517L16.4111 19.2184C16.6146 19.7007 16.8185 20.1839 17.0559 20.6506C17.6141 21.7483 18.2745 22.7855 19.1183 23.7042C20.602 25.3198 22.4751 26.3738 24.5103 27.1907C24.6434 27.2442 24.7834 27.2815 24.9289 27.3203ZM26.0512 21.2748C26.0501 21.2829 26.0491 21.2938 26.048 21.3067C26.0446 21.3449 26.0396 21.4006 26.025 21.4538C25.9544 21.7124 25.5492 21.7448 25.4559 21.4838C25.4282 21.4063 25.4241 21.3182 25.4239 21.2349C25.423 20.6893 25.3004 20.1444 25.0161 19.6697C24.7238 19.1819 24.2773 18.7718 23.7535 18.5237C23.4368 18.3737 23.0943 18.2804 22.7472 18.2248C22.6528 18.2097 22.5577 18.1983 22.4626 18.1869C22.405 18.18 22.3472 18.173 22.2897 18.1653C22.105 18.1405 22.0063 18.0265 22.0151 17.8504C22.0232 17.6854 22.1479 17.5667 22.3338 17.5768C22.9448 17.6104 23.5349 17.7381 24.078 18.0164C25.1825 18.5823 25.8135 19.4756 25.9976 20.6683C26.0006 20.6877 26.0042 20.7069 26.0079 20.7262C26.0144 20.7608 26.0209 20.7953 26.0236 20.8301C26.0309 20.9242 26.0363 21.0183 26.0426 21.1272C26.0452 21.1733 26.0481 21.2223 26.0512 21.2748ZM24.0305 20.8995C24.0534 21.097 24.1726 21.2163 24.3954 21.2124C24.4968 21.2058 24.6008 21.1377 24.6333 21.0019C24.6518 20.925 24.6441 20.8404 24.6369 20.7598L24.6362 20.7519C24.5309 19.5763 23.7933 19.0601 22.7611 18.988C22.596 18.9764 22.4489 19.0906 22.4236 19.2368C22.3958 19.3975 22.4937 19.5361 22.6707 19.5781C22.7471 19.5962 22.8249 19.6031 22.9029 19.61C22.9913 19.6178 23.0799 19.6256 23.1668 19.6498C23.2954 19.6857 23.4182 19.7414 23.5265 19.8178C23.756 19.9795 23.901 20.2241 23.9679 20.4881C23.9972 20.6034 24.0106 20.7229 24.0239 20.8418L24.0305 20.8995Z" fill="white"/>
</svg>
