<svg width="44" height="44" viewBox="0 0 44 44" fill="none" xmlns="http://www.w3.org/2000/svg">
<circle cx="22" cy="22" r="22" fill="#ED1B24"/>
<path d="M5.13316 25.7714V18.2099H6.62692C7.13615 18.2099 7.53788 18.297 7.83211 18.4713C8.13199 18.6393 8.34417 18.8945 8.46865 19.2368C8.59879 19.5791 8.66386 20.0054 8.66386 20.5157V23.2976C8.66386 23.8328 8.59879 24.284 8.46865 24.6512C8.34417 25.0184 8.13765 25.2984 7.84908 25.4913C7.56618 25.678 7.18425 25.7714 6.7033 25.7714H5.13316ZM6.09222 25.0153H6.63541C6.98621 25.0153 7.23517 24.9406 7.38228 24.7912C7.5294 24.6418 7.6171 24.424 7.64539 24.1377C7.67934 23.8515 7.69631 23.5061 7.69631 23.1015V20.6464C7.69631 20.2543 7.67368 19.9369 7.62842 19.6942C7.58315 19.4515 7.48413 19.2741 7.33136 19.1621C7.17859 19.0501 6.93812 18.9941 6.60994 18.9941H6.09222V25.0153Z" fill="white"/>
<path d="M9.77861 25.7714V18.2099H11.162C11.6203 18.2099 11.9994 18.2784 12.2993 18.4153C12.5992 18.546 12.8199 18.7607 12.9613 19.0594C13.1084 19.3519 13.182 19.7378 13.182 20.217C13.182 20.5095 13.1537 20.7771 13.0971 21.0198C13.0405 21.2563 12.95 21.4586 12.8255 21.6266C12.7011 21.7884 12.537 21.9066 12.3333 21.9813L13.3093 25.7714H12.3842L11.4845 22.224H10.7377V25.7714H9.77861ZM10.7377 21.4679H11.1026C11.3742 21.4679 11.5949 21.4305 11.7646 21.3559C11.9344 21.2812 12.0589 21.1536 12.1381 20.9731C12.2173 20.7926 12.2569 20.5406 12.2569 20.217C12.2569 19.7751 12.1833 19.4577 12.0362 19.2648C11.8891 19.0656 11.5977 18.9661 11.162 18.9661H10.7377V21.4679Z" fill="white"/>
<path d="M14.4004 25.7714V18.2099H15.3425V25.7714H14.4004Z" fill="white"/>
<path d="M17.8212 25.7714L16.285 18.2099H17.1846L18.271 23.783L19.3064 18.2099H20.1806L18.6614 25.7714H17.8212Z" fill="white"/>
<path d="M21.0793 25.7714V18.2099H23.7443V18.9941H22.0383V21.4959H23.4217V22.2427H22.0383V25.0153H23.7612V25.7714H21.0793Z" fill="white"/>
<path d="M24.5185 25.7714V25.0619L26.2669 22.0653C26.397 21.8413 26.5159 21.6328 26.6234 21.4399C26.7365 21.247 26.8271 21.0447 26.895 20.8331C26.9685 20.6153 27.0053 20.3663 27.0053 20.0863C27.0053 19.7378 26.9544 19.4639 26.8525 19.2648C26.7507 19.0656 26.5724 18.9661 26.3178 18.9661C26.1028 18.9661 25.9359 19.0314 25.8171 19.1621C25.6983 19.2928 25.6162 19.4639 25.5709 19.6755C25.5257 19.8871 25.5031 20.1143 25.5031 20.357V20.6091H24.5949V20.3477C24.5949 19.8934 24.6487 19.5044 24.7562 19.1808C24.8693 18.8509 25.0476 18.5958 25.2909 18.4153C25.5398 18.2348 25.868 18.1446 26.2754 18.1446C26.8299 18.1446 27.2429 18.3188 27.5145 18.6673C27.7861 19.0096 27.9219 19.4857 27.9219 20.0956C27.9219 20.4192 27.8851 20.7024 27.8116 20.9451C27.7437 21.1878 27.6532 21.415 27.54 21.6266C27.4268 21.8382 27.3023 22.056 27.1666 22.28L25.5879 24.9312H27.7607V25.7714H24.5185Z" fill="white"/>
<path d="M28.8092 25.7714V24.6605H29.7173V25.7714H28.8092Z" fill="white"/>
<path d="M30.6974 25.7714V18.2099H32.0808C32.5391 18.2099 32.9182 18.2784 33.2181 18.4153C33.518 18.546 33.7387 18.7607 33.8801 19.0594C34.0272 19.3519 34.1008 19.7378 34.1008 20.217C34.1008 20.5095 34.0725 20.7771 34.0159 21.0198C33.9593 21.2563 33.8688 21.4586 33.7443 21.6266C33.6198 21.7884 33.4557 21.9066 33.2521 21.9813L34.2281 25.7714H33.303L32.4033 22.224H31.6564V25.7714H30.6974ZM31.6564 21.4679H32.0214C32.293 21.4679 32.5137 21.4305 32.6834 21.3559C32.8531 21.2812 32.9776 21.1536 33.0568 20.9731C33.1361 20.7926 33.1757 20.5406 33.1757 20.217C33.1757 19.7751 33.1021 19.4577 32.955 19.2648C32.8079 19.0656 32.5165 18.9661 32.0808 18.9661H31.6564V21.4679Z" fill="white"/>
<path d="M37.0421 25.8554C36.5442 25.8554 36.1622 25.7465 35.8963 25.5287C35.6304 25.3109 35.4493 25.0059 35.3531 24.6138C35.2569 24.2155 35.2088 23.7519 35.2088 23.2229V18.2099H36.1255V23.2696C36.1255 23.5932 36.1453 23.8888 36.1849 24.1564C36.2245 24.424 36.3093 24.6356 36.4395 24.7912C36.5753 24.9468 36.7761 25.0246 37.0421 25.0246C37.3137 25.0246 37.5145 24.9468 37.6447 24.7912C37.7748 24.6356 37.8597 24.424 37.8993 24.1564C37.9389 23.8888 37.9587 23.5932 37.9587 23.2696V18.2099H38.8668V23.2229C38.8668 23.7519 38.8187 24.2155 38.7226 24.6138C38.6264 25.0059 38.4453 25.3109 38.1794 25.5287C37.9191 25.7465 37.54 25.8554 37.0421 25.8554Z" fill="white"/>
<path fill-rule="evenodd" clip-rule="evenodd" d="M26.2754 18.2892C25.8854 18.2892 25.5858 18.3756 25.3654 18.5351C25.1475 18.6969 24.9857 18.9264 24.8812 19.2305C24.7804 19.5342 24.7281 19.9054 24.7281 20.3477V20.4645H25.3699V20.357C25.3699 20.1046 25.3934 19.8663 25.4412 19.6428C25.491 19.41 25.5833 19.2135 25.7223 19.0605C25.8725 18.8954 26.0774 18.8215 26.3178 18.8215C26.6086 18.8215 26.8382 18.939 26.9689 19.1946C27.0861 19.4237 27.1385 19.7251 27.1385 20.0863C27.1385 20.3795 27.1 20.6454 27.0203 20.8818C26.9492 21.1032 26.8545 21.3147 26.7365 21.5161C26.6287 21.7095 26.5097 21.9183 26.3795 22.1425L24.6517 25.1039V25.6268H27.6275V25.0758H25.3433L27.0547 22.2016L27.0553 22.2006C27.1899 21.9786 27.313 21.763 27.4248 21.554C27.5327 21.3524 27.6192 21.1355 27.6842 20.9031L27.6851 20.8999C27.7532 20.6751 27.7888 20.4078 27.7888 20.0956C27.7888 19.5082 27.6581 19.0698 27.4136 18.7617L27.4129 18.7607C27.1741 18.4543 26.804 18.2892 26.2754 18.2892ZM27.0203 20.8818C27.0202 20.8821 27.0201 20.8825 27.02 20.8829L26.895 20.8331L27.0207 20.8807C27.0206 20.881 27.0205 20.8814 27.0203 20.8818ZM25.2169 18.2951C25.4944 18.0939 25.8509 18 26.2754 18C26.8555 18 27.3114 18.1832 27.6158 18.5734C27.9143 18.9499 28.0551 19.4635 28.0551 20.0956C28.0551 20.43 28.0172 20.7286 27.9385 20.9888C27.8678 21.2412 27.7734 21.4781 27.6551 21.6992C27.5407 21.9132 27.415 22.1331 27.2781 22.3591C27.278 22.3592 27.2782 22.3589 27.2781 22.3591L25.8326 24.7867H27.8938V25.916H24.3854V25.02L26.1543 21.9882C26.284 21.7648 26.4024 21.5571 26.5094 21.365L26.511 21.3622C26.6188 21.1785 26.7048 20.9864 26.7692 20.7855L26.7699 20.7833C26.8371 20.5844 26.8721 20.3528 26.8721 20.0863C26.8721 19.7504 26.8227 19.5042 26.7361 19.335C26.6631 19.1923 26.5363 19.1107 26.3178 19.1107C26.1283 19.1107 25.9993 19.1675 25.9118 19.2637C25.8132 19.3721 25.7414 19.5179 25.7007 19.7083C25.6579 19.908 25.6362 20.124 25.6362 20.357V20.7536H24.4618V20.3477C24.4618 19.8817 24.5168 19.4752 24.6309 19.1317L24.6314 19.1303C24.7531 18.7754 24.9475 18.4949 25.2157 18.2959L25.2169 18.2951ZM5 18.0653H6.62692C7.1471 18.0653 7.57333 18.1538 7.89453 18.3436C8.22218 18.5276 8.456 18.809 8.59213 19.1827C8.73065 19.5475 8.79702 19.9936 8.79702 20.5157V23.2976C8.79702 23.8441 8.73075 24.3138 8.59328 24.7021C8.45915 25.0972 8.23429 25.4036 7.9189 25.6145C7.60776 25.8198 7.19824 25.916 6.7033 25.916H5V18.0653ZM5.26632 18.3545V25.6268H6.7033C7.17004 25.6268 7.52493 25.536 7.77958 25.368C8.0409 25.1932 8.22887 24.9399 8.34369 24.6012L8.34436 24.5993C8.46693 24.2534 8.5307 23.821 8.5307 23.2976V20.5157C8.5307 20.0176 8.46705 19.6115 8.34557 19.292L8.34478 19.2899C8.23208 18.98 8.04215 18.7517 7.77104 18.5998L7.76833 18.5983C7.50124 18.4401 7.12448 18.3545 6.62692 18.3545H5.26632ZM9.64545 18.0653H11.162C11.6309 18.0653 12.0287 18.1351 12.3499 18.2816C12.6771 18.4244 12.9223 18.6618 13.079 18.9917C13.2399 19.3125 13.3152 19.7243 13.3152 20.217C13.3152 20.5195 13.2859 20.7992 13.2262 21.0553C13.1655 21.309 13.0671 21.5312 12.9293 21.7172L12.9278 21.7193C12.8116 21.8703 12.6661 21.9864 12.494 22.0686L13.4848 25.916H12.2827L11.3831 22.3686H10.8708V25.916H9.64545V18.0653ZM9.91177 18.3545V25.6268H10.6045V22.0795H11.586L12.4856 25.6268H13.1338L12.171 21.8882L12.2907 21.8444C12.4732 21.7774 12.6155 21.6736 12.7225 21.5349C12.8333 21.3851 12.9158 21.2025 12.9681 20.9839C13.0215 20.7546 13.0488 20.4993 13.0488 20.217C13.0488 19.7521 12.9772 19.3927 12.8445 19.1287L12.8429 19.1256C12.7168 18.8592 12.5213 18.6678 12.2497 18.5495L12.2477 18.5486C11.9694 18.4215 11.6093 18.3545 11.162 18.3545H9.91177ZM14.2672 18.0653H15.4756V25.916H14.2672V18.0653ZM14.5335 18.3545V25.6268H15.2093V18.3545H14.5335ZM16.1192 18.0653H17.2925L18.2678 23.0687L19.1974 18.0653H20.3459L18.7686 25.916H17.7142L16.1192 18.0653ZM16.4507 18.3545L17.9281 25.6268H18.5541L20.0153 18.3545H19.4154L18.4015 23.8116L18.1407 23.813L17.0767 18.3545H16.4507ZM20.9461 18.0653H23.8774V19.1387H22.1715V21.3513H23.5549V22.3873H22.1715V24.8707H23.8944V25.916H20.9461V18.0653ZM21.2124 18.3545V25.6268H23.6281V25.1598H21.9052V22.0981H23.2886V21.6405H21.9052V18.8495H23.6111V18.3545H21.2124ZM30.5642 18.0653H32.0808C32.5496 18.0653 32.9474 18.1351 33.2687 18.2816C33.5958 18.4244 33.8411 18.6617 33.9978 18.9917C34.1587 19.3125 34.2339 19.7243 34.2339 20.217C34.2339 20.5195 34.2047 20.7992 34.145 21.0553C34.0843 21.309 33.9859 21.5312 33.8481 21.7172L33.8465 21.7193C33.7304 21.8703 33.5849 21.9864 33.4128 22.0686L34.4036 25.916H33.2015L32.3019 22.3686H31.7896V25.916H30.5642V18.0653ZM30.8305 18.3545V25.6268H31.5233V22.0795H32.5048L33.4044 25.6268H34.0526L33.0898 21.8882L33.2094 21.8444C33.392 21.7774 33.5343 21.6737 33.6413 21.535C33.752 21.3852 33.8346 21.2025 33.8869 20.9839C33.9403 20.7546 33.9676 20.4993 33.9676 20.217C33.9676 19.7521 33.896 19.3927 33.7632 19.1287L33.7616 19.1256C33.6355 18.8592 33.4401 18.6678 33.1685 18.5495L33.1665 18.5486C32.8882 18.4215 32.5281 18.3545 32.0808 18.3545H30.8305ZM35.0757 18.0653H36.2586V23.2696C36.2586 23.5869 36.278 23.8747 36.3163 24.1335C36.3529 24.3806 36.4292 24.5634 36.5371 24.6929C36.64 24.81 36.8003 24.88 37.0421 24.88C37.2917 24.88 37.4501 24.8088 37.5461 24.694C37.6545 24.5644 37.7311 24.3813 37.7678 24.1335C37.8061 23.8747 37.8255 23.5869 37.8255 23.2696V18.0653H39V23.2229C39 23.761 38.9511 24.2374 38.8514 24.6505C38.7486 25.0695 38.5524 25.4041 38.2601 25.6437C37.9673 25.8884 37.5547 26 37.0421 26C36.5289 26 36.1141 25.8882 35.8161 25.6441C35.5235 25.4045 35.3273 25.0703 35.2244 24.6511C35.1247 24.238 35.0757 23.761 35.0757 23.2229V18.0653ZM35.342 18.3545V23.2229C35.342 23.7427 35.3893 24.1934 35.4818 24.5768C35.5714 24.9416 35.7372 25.2173 35.9765 25.4133C36.2104 25.6049 36.5595 25.7108 37.0421 25.7108C37.525 25.7108 37.8704 25.6047 38.0981 25.4142L38.0992 25.4133C38.3384 25.2173 38.5043 24.9416 38.5938 24.5768C38.6864 24.1934 38.7337 23.7427 38.7337 23.2229V18.3545H38.0919V23.2696C38.0919 23.5995 38.0717 23.9029 38.0308 24.1794C37.9882 24.4667 37.8951 24.7068 37.7432 24.8884C37.579 25.0848 37.3356 25.1692 37.0421 25.1692C36.7528 25.1692 36.5116 25.084 36.3428 24.8907L36.3409 24.8884C36.189 24.7068 36.0959 24.4667 36.0534 24.1794C36.0125 23.9029 35.9923 23.5995 35.9923 23.2696V18.3545H35.342ZM10.6045 18.8215H11.162C11.6055 18.8215 11.952 18.9206 12.1394 19.1734C12.3161 19.4058 12.39 19.7651 12.39 20.217C12.39 20.5503 12.3497 20.827 12.2583 21.0353C12.1648 21.2482 12.0154 21.4015 11.8146 21.4899C11.6233 21.5741 11.3838 21.6125 11.1026 21.6125H10.6045V18.8215ZM10.8708 19.1107V21.3233H11.1026C11.3646 21.3233 11.5665 21.287 11.7146 21.2219C11.8533 21.1608 11.9529 21.059 12.0179 20.9109C12.0849 20.7583 12.1237 20.5309 12.1237 20.217C12.1237 19.7857 12.0507 19.5105 11.9337 19.357L11.9323 19.3553C11.8254 19.2105 11.5894 19.1107 11.162 19.1107H10.8708ZM31.5233 18.8215H32.0808C32.5242 18.8215 32.8708 18.9206 33.0582 19.1734C33.2349 19.4058 33.3088 19.7651 33.3088 20.217C33.3088 20.5503 33.2685 20.827 33.1771 21.0353C33.0836 21.2482 32.9342 21.4015 32.7334 21.4899C32.542 21.5741 32.3026 21.6125 32.0214 21.6125H31.5233V18.8215ZM31.7896 19.1107V21.3233H32.0214C32.2834 21.3233 32.4853 21.287 32.6334 21.2219C32.7721 21.1608 32.8717 21.059 32.9366 20.9109C33.0036 20.7583 33.0425 20.5309 33.0425 20.217C33.0425 19.7857 32.9695 19.5105 32.8524 19.357L32.8511 19.3553C32.7442 19.2105 32.5082 19.1107 32.0808 19.1107H31.7896ZM5.95906 18.8495H6.60994C6.94656 18.8495 7.21978 18.9058 7.40589 19.0423C7.59413 19.1803 7.70847 19.395 7.75892 19.6655C7.80666 19.9215 7.82947 20.2496 7.82947 20.6464V23.1015C7.82947 23.5093 7.81241 23.8607 7.77763 24.1547C7.74686 24.4637 7.64992 24.7174 7.47323 24.8968C7.28865 25.0842 6.99698 25.1598 6.6354 25.1598H5.95906V18.8495ZM6.22538 19.1387V24.8707H6.6354C6.97544 24.8707 7.1817 24.7969 7.29133 24.6856C7.40857 24.5666 7.48701 24.3852 7.51299 24.1223L7.51329 24.1193C7.54629 23.841 7.56315 23.5021 7.56315 23.1015V20.6464C7.56315 20.2591 7.5407 19.9524 7.4979 19.7229C7.45783 19.508 7.37413 19.3679 7.25683 19.2819C7.1374 19.1943 6.92967 19.1387 6.60994 19.1387H6.22538ZM28.676 24.5159H29.8505V25.916H28.676V24.5159ZM28.9423 24.8051V25.6268H29.5841V24.8051H28.9423Z" fill="white"/>
</svg>
