<svg width="44" height="44" viewBox="0 0 44 44" fill="none" xmlns="http://www.w3.org/2000/svg">
<circle cx="22" cy="22" r="22" fill="#1BD741"/>
<path fill-rule="evenodd" clip-rule="evenodd" d="M29.7946 14.1971C27.7265 12.1365 24.9761 11.0012 22.046 11C16.0082 11 11.0943 15.8902 11.0919 21.9008C11.0911 23.8221 11.5954 25.6977 12.554 27.351L11 33L16.8069 31.484C18.407 32.3526 20.2084 32.8104 22.0416 32.8109H22.0461C28.0833 32.8109 32.9977 27.9203 33 21.9095C33.0012 18.9965 31.8629 16.2576 29.7946 14.1971ZM27.04 24.1836C26.7664 24.0472 25.4207 23.3884 25.1697 23.2974C24.9191 23.2065 24.7364 23.1612 24.5541 23.4338C24.3715 23.7064 23.8471 24.32 23.6873 24.5017C23.5276 24.6835 23.3681 24.7064 23.0944 24.5699C22.8206 24.4336 21.9387 24.1459 20.8932 23.2179C20.0796 22.4956 19.5304 21.6036 19.3706 21.331C19.2111 21.0582 19.3693 20.925 19.4907 20.7751C19.787 20.4089 20.0837 20.025 20.1749 19.8434C20.2662 19.6616 20.2205 19.5024 20.152 19.3661C20.0837 19.2299 19.5363 17.8891 19.3083 17.3435C19.0859 16.8126 18.8605 16.8843 18.6924 16.876C18.5329 16.8681 18.3503 16.8664 18.1678 16.8664C17.9854 16.8664 17.6888 16.9345 17.4378 17.2074C17.187 17.4801 16.48 18.139 16.48 19.4797C16.48 20.8205 17.4608 22.1157 17.5976 22.2976C17.7344 22.4794 19.5277 25.2307 22.2732 26.4105C22.9262 26.6914 23.436 26.8588 23.8336 26.9844C24.4893 27.1917 25.0858 27.1624 25.5575 27.0923C26.0834 27.0141 27.1767 26.4333 27.405 25.7971C27.633 25.1608 27.633 24.6155 27.5645 24.5017C27.4962 24.3881 27.3137 24.32 27.04 24.1836Z" fill="white"/>
</svg>
