<svg width="44" height="44" viewBox="0 0 44 44" fill="none" xmlns="http://www.w3.org/2000/svg">
<path d="M22 44C34.1503 44 44 34.1503 44 22C44 9.84974 34.1503 0 22 0C9.84974 0 0 9.84974 0 22C0 34.1503 9.84974 44 22 44Z" fill="#039BE5"/>
<path d="M11.0709 20.2567L31.4682 12.0998C32.4149 11.7451 33.2417 12.3394 32.935 13.8241L32.9367 13.8223L29.4637 30.7925C29.2063 31.9957 28.517 32.2882 27.5527 31.7214L22.2639 27.6786L19.7129 30.2275C19.4308 30.5201 19.1928 30.7669 18.6463 30.7669L19.0218 25.1845L28.8238 16C29.2504 15.6105 28.7286 15.3911 28.1662 15.7788L16.053 23.6888L10.8312 21.9993C9.69761 21.6263 9.67293 20.8236 11.0709 20.2567Z" fill="white"/>
</svg>
