<svg width="44" height="44" viewBox="0 0 44 44" fill="none" xmlns="http://www.w3.org/2000/svg">
<circle cx="22" cy="22" r="22" fill="#535353"/>
<path d="M17.7651 12H30.7743L26.8321 32H13.8229L17.7651 12Z" fill="#00D169"/>
<path d="M11 28.6947L13.9608 14.5744H17.7073L15.3981 25.6138H19.9686L19.3171 28.6947H11ZM26.1777 23.5566L25.095 28.6947H21.3484L24.3092 14.5744H28.0174C29.6272 14.5744 30.8601 14.8964 31.716 15.5403C32.5721 16.1842 33 17.1532 33 18.4474C33 19.4519 32.7733 20.3275 32.3198 21.0744C31.8662 21.8213 31.1922 22.3912 30.2979 22.7839L32.4443 27.7676L32.8274 28.6947H28.7456L26.8772 23.5566H26.1777ZM26.7814 20.6881H27.2701C27.8769 20.6881 28.3592 20.5143 28.7169 20.1666C29.0746 19.8124 29.2535 19.3198 29.2535 18.6888C29.2535 18.2896 29.1417 17.987 28.9181 17.781C28.7009 17.5685 28.3815 17.4623 27.9599 17.4623H27.4521L26.7814 20.6881Z" fill="white"/>
</svg>
