<svg width="44" height="44" viewBox="0 0 44 44" fill="none" xmlns="http://www.w3.org/2000/svg">
<path d="M22 44C34.1503 44 44 34.1503 44 22C44 9.84974 34.1503 0 22 0C9.84974 0 0 9.84974 0 22C0 34.1503 9.84974 44 22 44Z" fill="#FF0000"/>
<path fill-rule="evenodd" clip-rule="evenodd" d="M32.1728 13.5506C33.2864 13.8471 34.1646 14.7152 34.4643 15.8165C35.0213 17.8281 34.9999 22.0212 34.9999 22.0212C34.9999 22.0212 34.9999 26.1928 34.4645 28.2046C34.1646 29.3058 33.2866 30.1741 32.1728 30.4704C30.1382 31 21.9999 31 21.9999 31C21.9999 31 13.8829 31 11.8271 30.4494C10.7133 30.1529 9.83531 29.2846 9.53538 28.1835C9 26.1928 9 22 9 22C9 22 9 17.8281 9.53538 15.8165C9.83511 14.7154 10.7347 13.8259 11.8269 13.5296C13.8615 13 21.9997 13 21.9997 13C21.9997 13 30.1382 13 32.1728 13.5506ZM26.1761 22L19.4085 25.8542V18.1459L26.1761 22Z" fill="white"/>
</svg>
