<svg width="123" height="25" viewBox="0 0 123 25" fill="none" xmlns="http://www.w3.org/2000/svg">
<path d="M8.41776 0H24.6042L19.6992 25H3.51276L8.41776 0Z" fill="#00D169"/>
<path d="M0 20.8684L3.68393 3.21804H8.34545L5.47225 17.0172H11.1591L10.3484 20.8684H0ZM18.8846 14.4457L17.5374 20.8684H12.8758L16.5598 3.21804H21.1736C23.1765 3.21804 24.7105 3.62047 25.7755 4.42532C26.8407 5.23017 27.3731 6.44148 27.3731 8.05922C27.3731 9.31479 27.091 10.4094 26.5267 11.343C25.9623 12.2766 25.1238 12.9889 24.0111 13.4799L26.6817 19.7094L27.1584 20.8684H22.0797L19.7549 14.4457H18.8846ZM19.6357 10.8601H20.2437C20.9988 10.8601 21.5988 10.6428 22.0439 10.2082C22.489 9.76549 22.7116 9.14978 22.7116 8.36103C22.7116 7.86204 22.5725 7.48375 22.2943 7.2262C22.0241 6.9606 21.6267 6.82781 21.1021 6.82781H20.4702L19.6357 10.8601ZM28.6369 16.1238L29.388 12.3571H35.9809L35.2179 16.1238H28.6369ZM48.0461 15.4478C48.0461 17.2345 47.4617 18.6269 46.2934 19.6249C45.1252 20.6149 43.4956 21.1099 41.4054 21.1099C40.5311 21.1099 39.7044 21.0133 38.9255 20.8201C38.1466 20.6189 37.4751 20.3292 36.9109 19.9509V15.7254C37.5784 16.152 38.3414 16.5101 39.1999 16.7999C40.0662 17.0897 40.8491 17.2345 41.5484 17.2345C42.1365 17.2345 42.5816 17.1098 42.8836 16.8602C43.1856 16.6108 43.3366 16.2566 43.3366 15.7979C43.3366 15.5805 43.2891 15.3793 43.1936 15.1942C43.0983 15.0011 42.9632 14.8119 42.7883 14.6268C42.6134 14.4336 42.1445 14.0151 41.3815 13.3712C40.4515 12.6147 39.7761 11.842 39.3549 11.0533C38.9335 10.2645 38.723 9.39929 38.723 8.45762C38.723 7.40326 38.9812 6.45758 39.498 5.62053C40.0224 4.77542 40.7575 4.12351 41.7034 3.66473C42.6572 3.19791 43.7223 2.96453 44.8985 2.96453C46.7982 2.96453 48.5071 3.39512 50.0252 4.2563L48.4155 7.84191C47.0564 7.13365 45.9001 6.77952 44.9463 6.77952C44.4375 6.77952 44.0442 6.89218 43.7661 7.11755C43.4956 7.3429 43.3605 7.67289 43.3605 8.10752C43.3605 8.50188 43.4916 8.87211 43.7541 9.21821C44.0243 9.55624 44.5331 10.011 45.2801 10.5824C46.218 11.2826 46.9134 12.0191 47.3664 12.7917C47.8194 13.5644 48.0461 14.4497 48.0461 15.4478ZM57.2498 20.8684H52.5883L55.4138 7.11755H51.6345L52.4572 3.21804H64.713L63.8666 7.11755H60.0754L57.2498 20.8684ZM80.5337 3.21804L78.1611 14.4698C77.6921 16.7315 76.798 18.4056 75.4787 19.4921C74.1592 20.5706 72.367 21.1099 70.1018 21.1099C69.0368 21.1099 68.0949 20.8885 67.2764 20.4459C66.4656 20.0032 65.8377 19.3835 65.3926 18.5867C64.9555 17.7899 64.7368 16.9005 64.7368 15.9186C64.7368 15.4035 64.7846 14.8843 64.8799 14.3612L67.2525 3.21804H71.9139L69.5891 14.2405C69.4779 14.7878 69.4221 15.2506 69.4221 15.6288C69.4221 16.651 69.903 17.1621 70.8648 17.1621C71.6119 17.1621 72.1961 16.9045 72.6175 16.3894C73.0467 15.8663 73.3726 15.0695 73.595 13.999L75.8721 3.21804H80.5337ZM96.3065 9.89427C96.3065 12.1479 95.9132 14.1037 95.1263 15.7616C94.3394 17.4116 93.195 18.6752 91.6928 19.5525C90.1984 20.4298 88.4261 20.8684 86.3754 20.8684H80.7601L84.4441 3.21804H89.4038C91.5973 3.21804 93.2942 3.80155 94.4944 4.9686C95.7024 6.12758 96.3065 7.76948 96.3065 9.89427ZM87.0789 16.9568C87.9531 16.9568 88.7321 16.6751 89.4155 16.1117C90.1071 15.5483 90.6435 14.7475 91.0251 13.7093C91.4065 12.663 91.5973 11.4718 91.5973 10.1357C91.5973 9.12968 91.3829 8.36909 90.9534 7.85398C90.5243 7.33083 89.9242 7.06925 89.1533 7.06925H88.3069L86.2562 16.9568H87.0789ZM97.4511 20.8684L101.135 3.21804H105.868L102.184 20.8684H97.4511ZM116.455 2.94037C118.521 2.94037 120.127 3.53998 121.271 4.73922C122.424 5.9304 123 7.59644 123 9.73732C123 11.8782 122.603 13.838 121.808 15.6168C121.021 17.3874 119.932 18.7476 118.541 19.6974C117.15 20.639 115.537 21.1099 113.701 21.1099C111.563 21.1099 109.91 20.5102 108.741 19.311C107.581 18.1118 107.001 16.4458 107.001 14.3129C107.001 12.18 107.41 10.2202 108.229 8.43348C109.047 6.6467 110.16 5.2865 111.567 4.35289C112.982 3.41122 114.611 2.94037 116.455 2.94037ZM118.291 9.78562C118.291 8.86811 118.1 8.15178 117.719 7.63667C117.337 7.11352 116.785 6.85194 116.061 6.85194C115.275 6.85194 114.551 7.18998 113.892 7.86604C113.232 8.54214 112.703 9.47175 112.306 10.6549C111.917 11.838 111.722 13.0493 111.722 14.2888C111.722 16.2365 112.517 17.2104 114.106 17.2104C114.861 17.2104 115.561 16.8763 116.205 16.2083C116.856 15.5403 117.365 14.6389 117.731 13.504C118.104 12.3692 118.291 11.1297 118.291 9.78562Z" fill="#535353"/>
</svg>
